<?xml version="1.0" standalone="no"?><!DOCTYPE svg PUBLIC "-//W3C//DTD SVG 1.1//EN" "http://www.w3.org/Graphics/SVG/1.1/DTD/svg11.dtd"><svg t="1599658584927" class="icon" viewBox="0 0 1024 1024" version="1.1" xmlns="http://www.w3.org/2000/svg" p-id="6465" xmlns:xlink="http://www.w3.org/1999/xlink" width="200" height="200"><defs><style type="text/css"></style></defs><path d="M228.103 547c-8.073 0-16.151-3.035-22.377-9.127-12.632-12.359-12.854-32.619-0.495-45.252L676.208 11.234c12.358-12.633 32.618-12.854 45.252-0.495 12.633 12.359 12.854 32.62 0.494 45.252L250.979 537.379C244.71 543.785 236.409 547 228.103 547zM698.082 1020.566c-8.22 0-16.437-3.146-22.69-9.435L204.416 537.565c-12.462-12.531-12.407-32.792 0.124-45.255 12.531-12.462 32.792-12.406 45.255 0.124l470.976 473.566c12.463 12.531 12.407 32.792-0.124 45.255C714.403 1017.464 706.241 1020.566 698.082 1020.566z" p-id="6466"></path></svg>