<?xml version="1.0" standalone="no"?><!DOCTYPE svg PUBLIC "-//W3C//DTD SVG 1.1//EN" "http://www.w3.org/Graphics/SVG/1.1/DTD/svg11.dtd"><svg t="1599646343126" class="icon" viewBox="0 0 1024 1024" version="1.1" xmlns="http://www.w3.org/2000/svg" p-id="3668" xmlns:xlink="http://www.w3.org/1999/xlink" width="200" height="200"><defs><style type="text/css"></style></defs><path d="M486.4 486.4h-204.8c-15.36 0-25.6 10.24-25.6 25.6s10.24 25.6 25.6 25.6h204.8v204.8c0 15.36 10.24 25.6 25.6 25.6s25.6-10.24 25.6-25.6v-204.8h204.8c15.36 0 25.6-10.24 25.6-25.6s-10.24-25.6-25.6-25.6h-204.8v-204.8c0-15.36-10.24-25.6-25.6-25.6s-25.6 10.24-25.6 25.6v204.8zM512 1024c-281.6 0-512-230.4-512-512s230.4-512 512-512 512 230.4 512 512-230.4 512-512 512z" p-id="3669"></path></svg>