<?xml version="1.0" standalone="no"?><!DOCTYPE svg PUBLIC "-//W3C//DTD SVG 1.1//EN" "http://www.w3.org/Graphics/SVG/1.1/DTD/svg11.dtd"><svg t="1599646350824" class="icon" viewBox="0 0 1024 1024" version="1.1" xmlns="http://www.w3.org/2000/svg" p-id="3806" xmlns:xlink="http://www.w3.org/1999/xlink" width="200" height="200"><defs><style type="text/css"></style></defs><path d="M403.09 166h176.07a59.15 59.15 0 1 0 0-118.29H403.09a59.15 59.15 0 0 0 0 118.29zM268.64 316.66v10.77a33 33 0 0 0 32.95 32.95h401a33 33 0 0 0 32.95-32.95v-10.77a33.05 33.05 0 0 0-32.95-33h-401a33.11 33.11 0 0 0-32.95 33zM544 509.34a21.89 21.89 0 0 0-20.63-14.88H290.46a21.87 21.87 0 0 0-21.82 21.81v37.24a21.87 21.87 0 0 0 21.82 21.82h196.15a298.4 298.4 0 0 1 57.41-66z m210.23-348.12h33.59a72.92 72.92 0 0 1 72.65 72.65v232.66a294.09 294.09 0 0 1 73 48.56V233.87c0-66.45-44.72-122.67-105.69-140.11a36.08 36.08 0 0 0-19.35-5.57h-54.3a36.51 36.51 0 1 0 0.09 73z m0 0" p-id="3807"></path><path d="M489.07 896.07H191.24a72.93 72.93 0 0 1-72.65-72.65V233.87a72.92 72.92 0 0 1 72.65-72.65h51.85a36.51 36.51 0 0 0 0-73h-51.85c-80.32 0-145.67 65.35-145.67 145.67v589.53c0 80.32 65.35 145.67 145.67 145.67h366.2a297.58 297.58 0 0 1-68.37-73z m0 0" p-id="3808"></path><path d="M298.67 708.14a30.11 30.11 0 0 0-30 30v17.89a30.11 30.11 0 0 0 30 30h146.4a299.58 299.58 0 0 1-4.66-52.3c0-8.67 0.37-17.25 1.1-25.65zM741 501.49c-135.54 0-245.44 107.61-245.44 240.42S605.45 982.33 741 982.33s245.43-107.62 245.43-240.42S876.53 501.49 741 501.49zM908 730H772.48v56.14H908v60.24H771.11v58.87h-58.87V845H576.7v-58.82h135.54V730H576.7v-42.4h95.84l-53.4-82.15 37-30.12L741 687.6l84.6-112.27 30.4 30.12L788.91 689H908z m0 0" p-id="3809"></path></svg>