<?xml version="1.0" standalone="no"?><!DOCTYPE svg PUBLIC "-//W3C//DTD SVG 1.1//EN" "http://www.w3.org/Graphics/SVG/1.1/DTD/svg11.dtd"><svg t="1583304071518" class="icon" viewBox="0 0 1024 1024" version="1.1" xmlns="http://www.w3.org/2000/svg" p-id="11914" xmlns:xlink="http://www.w3.org/1999/xlink" width="200" height="200"><defs><style type="text/css"></style></defs><path d="M738.4 604.2c-51.9 0.6-89.5 39.9-88.5 92.3 1 49.7 39.6 87.8 89.4 88 50.8 0.2 91.2-40.1 91.2-90.9-0.1-50.8-40.5-90.1-92.1-89.4z m1.9 149.1c-34.5 0.3-60.3-26.7-59.1-61.7 1.2-33.8 26-57 60.1-56.2 33.3 0.8 58.4 26.4 58 59.2-0.3 32.4-26.4 58.4-59 58.7zM282.1 604.2c-50 0.2-88.8 38.1-89.9 87.6-1.1 50.8 38.5 92 89.3 92.7 51.4 0.7 91.1-38.4 91.3-90.1 0.1-52.1-38.4-90.5-90.7-90.2z m-1.9 150.1c-32.8-1.4-58.2-28.3-57.8-61.1 0.4-34 29.1-61 63.4-59.5 33.2 1.4 58.3 28.1 57.7 61.2-0.7 34.9-28.4 60.9-63.3 59.4z" p-id="11915"></path><path d="M829.9 62.5H192.8c-49.2 0-89.2 40-89.2 89.2v670.6c0 30.7 25 55.7 55.7 55.7h16.6v31.6c0 29.2 23.7 52.9 52.9 52.9h66.9c29.2 0 52.9-23.7 52.9-52.9V878H674v31.6c0 29.2 23.7 52.9 52.9 52.9h66.9c29.2 0 52.9-23.7 52.9-52.9V878h16.6c30.7 0 55.7-25 55.7-55.7V151.7c0.1-49.2-39.9-89.2-89.1-89.2z m-637.1 44.6H830c24.6 0 44.6 20 44.6 44.6v57.6H148.2v-57.6c0-24.6 20-44.6 44.6-44.6z m681.7 146.7v252.6H148.2V253.8h726.3zM309.7 909.6c0 7.7-6.2 13.9-13.9 13.9h-66.9c-7.7 0-13.9-6.2-13.9-13.9V878h94.7v31.6z m498.1 0c0 7.7-6.2 13.9-13.9 13.9H727c-7.7 0-13.9-6.2-13.9-13.9V878h94.7v31.6z m55.5-76.2h-704c-6.1 0-11.1-5-11.1-11.1V551h726.3v271.2c0 6.2-5 11.2-11.2 11.2z" p-id="11916"></path></svg>