<?xml version="1.0" standalone="no"?><!DOCTYPE svg PUBLIC "-//W3C//DTD SVG 1.1//EN" "http://www.w3.org/Graphics/SVG/1.1/DTD/svg11.dtd"><svg t="1583307676771" class="icon" viewBox="0 0 1027 1024" version="1.1" xmlns="http://www.w3.org/2000/svg" p-id="23412" xmlns:xlink="http://www.w3.org/1999/xlink" width="200.5859375" height="200"><defs><style type="text/css"></style></defs><path d="M937.052694 64.23889 937.052694 64.23889C947.523633 64.23889 954.895046 66.182117 958.71726 67.643552 963.3264 79.91318 969.509393 123.8847 924.060378 169.381894L712.618071 380.824202 692.238283 401.20399 693.892434 429.966953C697.409513 490.158793 703.929761 598.03195 709.550664 690.503833 714.497058 772.809911 719.202557 850.538968 719.523751 857.155574 719.684349 861.700476 719.732528 862.760417 715.508821 867.883469 706.033584 879.39829 688.33577 898.894793 673.448407 915.082993 650.322407 852.819449 601.773865 721.306381 574.954129 647.688612L540.473904 552.952309 469.184796 624.257477 338.10534 750.31024 319.845435 768.538025 319.283345 794.329939C318.833673 814.902444 318.930031 851.823746 318.99427 884.376804 319.058509 907.053132 319.122748 927.657756 318.96215 939.01198 318.689135 939.558011 323.362514 940.18434 322.912842 940.923087 320.13451 936.442425 317.115282 931.624508 313.951517 926.597815 287.501154 884.441043 250.933166 826.12819 239.771658 807.932524L231.613319 794.602955 218.219511 786.508854C169.510372 757.087443 115.549704 723.121129 82.627273 701.922295 83.751453 701.231727 84.682917 704.700627 85.437724 704.299134L87.573667 704.299134C97.932188 704.299134 115.051853 704.523971 134.243221 704.813046 159.344568 705.1503 187.818456 705.551793 209.627559 705.551793 217.962555 705.551793 225.398207 705.487554 231.356364 705.375136L257.148278 704.764866 275.360004 686.553141 401.589423 556.34091 472.637636 485.324817 378.351005 450.635816C307.479449 424.570886 171.758733 373.886402 108.27465 350.053773 124.559208 335.053993 144.200249 317.24376 155.634772 307.768524 158.846716 305.134729 161.319913 303.785713 163.038304 303.785713L165.302725 303.849951C172.385062 304.187206 260.344163 309.936586 345.380394 315.477191 435.652095 321.371109 537.534975 328.035894 595.462394 331.69751L624.418074 333.512259 644.92634 313.003993 856.304409 101.625925C888.873526 69.104986 920.864494 64.23889 937.052694 64.23889M937.052694 0C899.08751 0 852.514314 14.582228 810.887513 56.209029L599.509444 267.587098C480.442661 260.055088 175.500649 239.884076 167.936519 239.6753 166.587502 239.611061 164.933351 239.546822 163.038304 239.546822 152.760081 239.546822 134.965909 241.522168 114.746718 258.240339 90.994388 277.88138 41.466204 324.454576 41.466204 324.454576 29.51777 336.435129 23.463255 351.274312 24.90863 365.230211 25.775855 373.661566 30.368935 389.03072 51.069918 397.12482 63.644681 402.055155 263.764884 476.925582 356.172528 510.924015L229.943108 641.120186C224.370384 641.248664 217.432584 641.312902 209.627559 641.312902 171.132404 641.312902 111.470535 640.060244 87.573667 640.060244 84.409902 640.060244 81.872466 640.060244 80.073777 640.124483 72.798723 640.349319 57.750762 636.768001 18.002949 669.979507L15.176438 672.629361C3.260124 684.545676 0.465732 696.42987 0.224836 704.267015-0.032119 712.361115 2.135943 724.036533 13.827421 733.415411 20.86158 739.084494 111.036922 796.835256 185.008004 841.497345 202.721878 870.420905 284.305269 1000.087105 288.577155 1007.121264 294.776208 1017.624322 304.942013 1023.614599 317.115282 1024.000032 317.468596 1024.000032 317.773731 1024.000032 318.127045 1024.000032 329.947001 1024.000032 342.088151 1018.122174 353.972346 1006.591293 387.601405 967.244972 382.960145 950.960414 383.104683 944.135032 383.650713 922.679242 382.735309 831.781212 383.522235 795.727135L514.601691 669.674372C548.102272 761.696583 621.334607 959.761142 626.232823 972.368024 634.391162 993.069006 649.760316 997.613908 658.191671 998.465073 659.572807 998.609611 660.986063 998.67385 662.367199 998.67385 675.03832 998.67385 688.191233 992.715693 698.935187 981.955678 698.935187 981.955678 745.363845 932.684449 765.101244 908.723343 784.854703 884.746177 784.067777 864.302151 783.698403 854.650257 783.537806 847.953353 764.940647 544.681552 758.034966 426.241097L969.477274 214.79879C1044.41194 139.832005 1032.495625 49.496065 1004.680186 21.696685 992.314199 9.346759 967.437689 0 937.052694 0L937.052694 0Z" p-id="23413"></path></svg>