<?xml version="1.0" standalone="no"?><!DOCTYPE svg PUBLIC "-//W3C//DTD SVG 1.1//EN" "http://www.w3.org/Graphics/SVG/1.1/DTD/svg11.dtd"><svg t="1583304030431" class="icon" viewBox="0 0 1024 1024" version="1.1" xmlns="http://www.w3.org/2000/svg" p-id="10568" xmlns:xlink="http://www.w3.org/1999/xlink" width="200" height="200"><defs><style type="text/css"></style></defs><path d="M789.333333 53.333333A96 96 0 0 1 885.333333 149.333333v597.333334a96 96 0 0 1-83.541333 95.189333L941.269333 981.333333h-90.517333l-138.688-138.666666H303.829333l-138.666666 138.666666H74.666667l140.608-140.629333A96.042667 96.042667 0 0 1 138.666667 746.666667V149.333333A96 96 0 0 1 234.666667 53.333333h554.666666zM821.333333 576h-618.666666v170.666667a32 32 0 0 0 32 32h554.666666a32 32 0 0 0 32-32v-170.666667zM320 640a42.666667 42.666667 0 1 1 0 85.333333 42.666667 42.666667 0 0 1 0-85.333333z m384 0a42.666667 42.666667 0 1 1 0 85.333333 42.666667 42.666667 0 0 1 0-85.333333zM480 277.333333h-277.333333v234.666667h277.333333V277.333333z m341.333333 0h-277.333333v234.666667h277.333333V277.333333zM789.333333 117.333333H234.666667A32 32 0 0 0 202.666667 149.333333v64h618.666666V149.333333A32 32 0 0 0 789.333333 117.333333z" p-id="10569"></path></svg>