<?xml version="1.0" standalone="no"?><!DOCTYPE svg PUBLIC "-//W3C//DTD SVG 1.1//EN" "http://www.w3.org/Graphics/SVG/1.1/DTD/svg11.dtd"><svg t="1583304090451" class="icon" viewBox="0 0 1024 1024" version="1.1" xmlns="http://www.w3.org/2000/svg" p-id="12485" xmlns:xlink="http://www.w3.org/1999/xlink" width="200" height="200"><defs><style type="text/css"></style></defs><path d="M585.1 124.5h-138c-33.1 0-60 26.9-60 60 0 8 6.5 14.5 14.5 14.5h229c8 0 14.5-6.5 14.5-14.5 0-33.1-26.9-60-60-60zM708.3 219H315c-28.2 0-54.3 14.8-68.7 39l-91.7 204.2c-1.7 3.8-4.5 7-8.1 9.1L105.9 495c-7.4 12.4-11.3 26.6-11.3 41v300h0.2v62.3c0 33.1 26.9 60 60 60h4.7c33.1 0 60-26.9 60-60V856c0-11 9-20 20-20h543.3c11 0 20 9 20 20v42.3c0 33.1 26.9 60 60 60h4.7c33.1 0 60-26.9 60-60V836h0.2V537c0-15-4.2-29.8-12.2-42.5l-38.9-20.7c-4-2.1-7.1-5.5-8.9-9.6l-91.5-207.7c-14.7-23.3-40.3-37.5-67.9-37.5zM385 319h254.4c26.9 0 52 13.5 66.8 36l46.6 100.9c13.5 26.6-5.8 58.1-35.7 58.1H309.6c-28.6 0-47.9-29.1-36.9-55.5l44.4-101.8c14.6-23.4 40.3-37.7 67.9-37.7zM247.3 753c-40.5 1.3-73.5-31.8-72.3-72.3 1.2-36.7 31-66.5 67.7-67.7 40.5-1.3 73.5 31.8 72.3 72.3-1.2 36.6-31.1 66.5-67.7 67.7z m532 0c-40.5 1.3-73.5-31.8-72.3-72.3 1.2-36.7 31-66.5 67.7-67.7 40.5-1.3 73.5 31.8 72.3 72.3-1.2 36.6-31.1 66.5-67.7 67.7z" p-id="12486"></path></svg>