<?xml version="1.0" standalone="no"?><!DOCTYPE svg PUBLIC "-//W3C//DTD SVG 1.1//EN" "http://www.w3.org/Graphics/SVG/1.1/DTD/svg11.dtd"><svg t="1583304055948" class="icon" viewBox="0 0 1024 1024" version="1.1" xmlns="http://www.w3.org/2000/svg" p-id="11741" xmlns:xlink="http://www.w3.org/1999/xlink" width="200" height="200"><defs><style type="text/css"></style></defs><path d="M397.62 162.15h220.65a14.12 14.12 0 0 1 14.12 14.12 14.12 14.12 0 0 1-14.12 14.12H397.62a14.12 14.12 0 0 1-14.12-14.12 14.12 14.12 0 0 1 14.12-14.12zM727.92 769.27H288a42.79 42.79 0 0 1-42.74-42.74v-451A42.79 42.79 0 0 1 288 232.74h440a42.79 42.79 0 0 1 42.74 42.74v451A42.79 42.79 0 0 1 728 769.27zM288 245a30.56 30.56 0 0 0-30.53 30.53v451A30.56 30.56 0 0 0 288 757.06h440a30.56 30.56 0 0 0 30.53-30.53v-451A30.56 30.56 0 0 0 727.94 245H288z" fill="#1D1E19" p-id="11742"></path><path d="M683.21 501H332.68a18.34 18.34 0 0 1-18.32-18.32v-161a18.34 18.34 0 0 1 18.32-18.32h350.53a18.34 18.34 0 0 1 18.32 18.32v161A18.34 18.34 0 0 1 683.21 501zM332.68 315.55a6.11 6.11 0 0 0-6.11 6.11v161a6.11 6.11 0 0 0 6.11 6.11h350.53a6.11 6.11 0 0 0 6.11-6.11v-161a6.11 6.11 0 0 0-6.11-6.11zM376.59 704.78c-30 0-54.5-24.91-54.5-55.52s24.45-55.52 54.5-55.52 54.5 24.91 54.5 55.52-24.45 55.52-54.5 55.52z m0-98.83c-23.32 0-42.29 19.43-42.29 43.31s19 43.31 42.29 43.31 42.29-19.43 42.29-43.31-19-43.32-42.29-43.32zM639.31 704.78c-30 0-54.5-24.91-54.5-55.52s24.45-55.52 54.5-55.52 54.5 24.91 54.5 55.52-24.45 55.52-54.5 55.52z m0-98.83C616 605.94 597 625.38 597 649.26s19 43.31 42.29 43.31 42.29-19.43 42.29-43.31-19-43.32-42.27-43.32zM254.57 698.67L27 831.9h92.63l134.94-89.34v-43.89zM767.43 698.67L995 831.9h-92.63l-134.94-89.34v-43.89z" fill="#1D1E19" p-id="11743"></path></svg>