<?xml version="1.0" standalone="no"?><!DOCTYPE svg PUBLIC "-//W3C//DTD SVG 1.1//EN" "http://www.w3.org/Graphics/SVG/1.1/DTD/svg11.dtd"><svg t="1583304392163" class="icon" viewBox="0 0 1024 1024" version="1.1" xmlns="http://www.w3.org/2000/svg" p-id="16351" xmlns:xlink="http://www.w3.org/1999/xlink" width="200" height="200"><defs><style type="text/css"></style></defs><path d="M313.469388 931.004082c-56.42449 0-113.371429-21.420408-156.212245-64.783674-41.795918-41.795918-64.261224-97.17551-64.261225-156.212245 0-59.036735 22.987755-114.416327 64.261225-156.212245l396.016326-396.016326c86.204082-86.204082 226.220408-86.204082 312.42449 0s86.204082 226.220408 0 312.42449l-396.016326 396.016326c-43.363265 43.363265-99.787755 64.783673-156.212245 64.783674zM708.963265 135.836735c-45.97551 0-91.95102 17.240816-126.432653 52.244898l-396.016326 396.016326c-33.436735 33.436735-52.244898 78.889796-52.244898 126.432653 0 48.065306 18.285714 92.995918 52.244898 126.432653 70.008163 70.008163 183.379592 70.008163 253.387755 0L835.918367 441.469388c70.008163-70.008163 70.008163-183.379592 0-253.387755-35.004082-35.004082-80.979592-52.244898-126.955102-52.244898zM171.885714 568.946939z" p-id="16352"></path><path d="M652.538776 683.363265L340.114286 370.938776l212.636734-212.636735c86.204082-86.204082 226.220408-86.204082 312.42449 0s86.204082 226.220408 0 312.42449l-212.636734 212.636734zM399.15102 370.938776l253.387756 253.387755 182.857142-182.857143c70.008163-70.008163 70.008163-183.379592 0-253.387755-70.008163-70.008163-183.379592-70.008163-253.387755 0l-182.857143 182.857143z" p-id="16353"></path><path d="M626.416327 299.885714c-5.22449 0-10.44898-2.089796-14.628572-6.269387l-79.934694-79.934694c-8.359184-8.359184-8.359184-21.420408 0-29.779592 8.359184-8.359184 21.420408-8.359184 29.779592 0l79.934694 79.934694c8.359184 8.359184 8.359184 21.420408 0 29.779592-4.702041 4.179592-9.926531 6.269388-15.15102 6.269387zM545.959184 380.342857c-5.22449 0-10.44898-2.089796-14.628572-6.269388L451.395918 294.138776c-8.359184-8.359184-8.359184-21.420408 0-29.779592 8.359184-8.359184 21.420408-8.359184 29.779592 0l79.934694 79.934694c8.359184 8.359184 8.359184 21.420408 0 29.779591-4.179592 4.179592-9.926531 6.269388-15.15102 6.269388z" p-id="16354"></path></svg>