<?xml version="1.0" standalone="no"?><!DOCTYPE svg PUBLIC "-//W3C//DTD SVG 1.1//EN" "http://www.w3.org/Graphics/SVG/1.1/DTD/svg11.dtd"><svg t="1583303288986" class="icon" viewBox="0 0 1024 1024" version="1.1" xmlns="http://www.w3.org/2000/svg" p-id="1700" xmlns:xlink="http://www.w3.org/1999/xlink" width="200" height="200"><defs><style type="text/css"></style></defs><path d="M264.5 305.8c13.3 0 24.2-10.9 24.2-24.2V88.4c0-13.3-10.9-24.2-24.2-24.2-13.3 0-24.2 10.9-24.2 24.2v193.3c0.1 13.2 10.9 24.1 24.2 24.1zM354.4 305.8c13.3 0 24.2-10.9 24.2-24.2V152.8c0-13.3-10.9-24.2-24.2-24.2-13.3 0-24.2 10.9-24.2 24.2v128.8c0.1 13.3 11 24.2 24.2 24.2zM444.4 305.8c13.3 0 24.2-10.9 24.2-24.2v-72.5c0-13.3-10.9-24.2-24.2-24.2s-24.2 10.9-24.2 24.2v72.5c0 13.3 10.9 24.2 24.2 24.2zM917.4 885.5L709.3 713.7C828.8 647.3 911.8 523 920.2 379c0.5-8 0.8-16 0.8-24.2s-0.3-16.2-0.8-24.2h-819c-0.5 8-0.8 16-0.8 24.2s0.3 16.2 0.8 24.2c8.4 144.7 92.2 269.4 212.6 335.6l-207 171c-10.2 8.5-11.7 23.8-3.2 34s23.8 11.7 34 3.2l81.6-67.4h582.2c1.1 0 2.2-0.2 3.3-0.3l82 67.7c10.2 8.5 25.5 7 34-3.2 8.4-10.3 7-25.6-3.3-34.1zM149.6 379h29.1c0 1.1 0 2.2 0.2 3.3C201.4 518.9 297.1 630.2 428.8 673c2.5 0.8 5 1.2 7.5 1.2 10.2 0 19.7-6.5 23-16.7 4.1-12.7-2.8-26.3-15.5-30.4-113-36.7-195.4-131.5-216.2-248.1h644.2c-12.5 188.4-169.6 337.8-361.1 337.8-191.5 0-348.6-149.4-361.1-337.8z m128.1 428.1l84.5-69.8c46.1 18 96.1 27.9 148.5 27.9 53.1 0 103.8-10.2 150.4-28.6l85.4 70.5H277.7z" fill="#595757" p-id="1701"></path></svg>