<?xml version="1.0" standalone="no"?><!DOCTYPE svg PUBLIC "-//W3C//DTD SVG 1.1//EN" "http://www.w3.org/Graphics/SVG/1.1/DTD/svg11.dtd"><svg t="1583303680604" class="icon" viewBox="0 0 1024 1024" version="1.1" xmlns="http://www.w3.org/2000/svg" p-id="3803" xmlns:xlink="http://www.w3.org/1999/xlink" width="200" height="200"><defs><style type="text/css"></style></defs><path d="M717.586861 713.428834 408.779862 713.428834c-14.205484 0-25.736562 11.526982-25.736562 25.732466 0 14.205484 11.531077 25.736562 25.736562 25.736562l308.806999 0c14.205484 0 25.736562-11.531077 25.736562-25.736562C743.323423 724.955816 731.792346 713.428834 717.586861 713.428834z" p-id="3804"></path><path d="M252.729431 237.745789l-54.40248 0c-4.983285 22.767273-10.667936 39.834537-17.068288 51.202816 22.751915 14.933472 43.369014 30.934864 61.869728 48.002128 10.667936-25.601408 17.068288-54.752651 19.201056-87.471136C263.746515 240.946477 260.546851 237.04647 252.729431 237.745789z" p-id="3805"></path><path d="M717.586861 557.283181 408.779862 557.283181c-14.205484 0-25.736562 11.526982-25.736562 25.732466s11.531077 25.736562 25.736562 25.736562l308.806999 0c14.205484 0 25.736562-11.531077 25.736562-25.736562S731.792346 557.283181 717.586861 557.283181z" p-id="3806"></path><path d="M691.806272 100.230884l0 0.82321c-3.294886 0-17.022213-1.372016-51.338993-0.82321L331.608061 100.230884c-30.634863 0-58.154022 13.407872-77.018217 34.665928-99.412794 5.351886-178.37743 87.650317-178.37743 188.39929 0 91.809368 65.577242 168.290042 152.443257 185.191435l0 312.415196c0 56.830129 46.122261 102.953414 102.95239 102.953414l463.150601 0c56.830129 0 102.95239-46.123285 102.95239-102.953414L897.711052 306.136688 691.806272 100.230884zM309.265703 204.677133c0-7.100694 3.549835-11.017083 10.666912-11.733808 7.100694 0.716725 10.666912 4.633114 10.666912 11.733808l0 93.871487c23.467616 14.234153 44.434886 31.651589 62.936624 52.269712 4.967926 6.400352 5.333456 12.100361 1.066896 17.067264-5.700009 4.983285-11.033465 4.633114-16.000368-1.066896-15.651221-17.767606-31.651589-32.00176-48.003152-42.668672l0 114.139439c0 7.100694-3.566218 11.017083-10.666912 11.733808-7.117077-0.716725-10.666912-4.633114-10.666912-11.733808L309.265703 204.677133zM169.524856 442.556028c-7.832778 4.26656-14.23313 3.550859-19.201056-2.133792-3.566218-6.400352-1.782597-11.733808 5.33448-16.000368 36.967638-19.901398 62.569046-42.301094 76.8032-67.203184-16.366921-16.351563-36.634873-32.351931-60.802832-48.002128-4.983285 7.116053-10.316741 14.23313-16.000368 21.333824-5.700009 5.700009-11.384661 6.050181-17.068288 1.066896-4.983285-4.966902-4.983285-10.301382 0-16.000368 22.751915-24.885707 36.618491-61.869728 41.6028-110.939775 1.416043-8.53312 6.033798-12.43415 13.866576-11.733808 7.100694 1.433449 10.301382 6.400352 9.60104 14.934496-0.716725 2.133792-1.066896 4.983285-1.066896 8.534144l57.603168 0c17.767606 0 25.601408 8.53312 23.467616 25.600384C280.098078 340.867121 242.062519 407.720133 169.524856 442.556028zM846.097656 820.901709c0 28.551242-22.785704 51.338993-51.338993 51.338993L331.608061 872.240703c-28.552266 0-51.61442-22.787751-51.61442-51.338993L279.993641 511.375938c97.144872-7.692504 173.582542-88.956804 173.582542-188.079836 0-76.052686-45.002123-141.585901-109.82578-171.450798l295.892643 0c-0.54983 61.497031 0.82321 102.953414 0.82321 102.953414 0 56.830129 45.847858 102.953414 102.95239 102.953414l102.677987 0L846.096632 820.901709zM743.419669 306.136688c-28.551242 0-51.613397-23.062154-51.613397-51.338993L691.806272 151.845304l154.291383 154.292407L743.419669 306.137712z" p-id="3807"></path></svg>